<?xml version="1.0" encoding="UTF-8"?>
<svg data-name="レイヤー 1" xmlns="http://www.w3.org/2000/svg" viewBox="52 108 256 80">
  <g>
    <path d="M60.06,166.96c0-.45-.02-.89-.05-1.32-.03-.43-.1-.83-.2-1.2-.1-.37-.26-.69-.48-.95s-.51-.45-.88-.55c-.23-.06-.46-.11-.71-.15s-.48-.07-.71-.09c-.12,0-.21-.05-.28-.15-.06-.1-.09-.21-.09-.34s.03-.24.09-.34c.06-.1.15-.15.28-.15.7,0,1.32.02,1.87.06s1.2.06,1.93.06c.31,0,.65,0,1.03-.01s.77-.03,1.17-.05c.4-.02.79-.04,1.17-.05.38,0,.72-.01,1.03-.01.8,0,1.64.07,2.52.2.88.13,1.69.38,2.44.75.75.37,1.36.88,1.84,1.52s.72,1.48.72,2.5c0,.63-.1,1.19-.29,1.66-.19.47-.46.88-.78,1.23-.33.35-.72.65-1.17.91-.45.26-.92.48-1.41.66-.16.06-.24.14-.21.25.02.1.09.17.21.22.8.25,1.51.53,2.13.84s1.15.69,1.58,1.12.76.94.98,1.52c.22.58.34,1.27.34,2.07,0,1.06-.19,1.95-.57,2.64-.38.7-.89,1.24-1.52,1.64-.64.4-1.36.68-2.17.84s-1.64.25-2.5.25c-.39,0-.82-.01-1.3-.03s-.98-.04-1.49-.05c-.51-.01-1.03-.03-1.55-.05s-1.01-.03-1.46-.03-.82,0-1.17.01c-.35.01-.68.03-1,.05s-.64.05-.98.08c-.34.03-.72.07-1.15.11-.14.02-.26-.02-.34-.12-.08-.1-.13-.21-.14-.34-.01-.12.02-.25.09-.37s.19-.19.35-.21c.49-.06.92-.14,1.28-.25.36-.1.65-.26.88-.48.23-.21.39-.49.49-.81.1-.33.15-.76.15-1.29v-11.79ZM63.41,170.22c0,.2.06.39.17.55.11.16.3.25.57.25h.58c.68,0,1.3-.06,1.86-.17.56-.11,1.05-.32,1.46-.63.41-.31.73-.72.97-1.24.24-.52.35-1.2.35-2.04,0-1.41-.35-2.42-1.06-3.03s-1.72-.91-3.06-.91h-1.04c-.39,0-.62.11-.69.32-.07.21-.11.58-.11,1.09v5.81ZM63.41,176.39c0,1.11.04,1.98.11,2.63.07.64.23,1.13.48,1.44.25.32.6.52,1.06.6s1.08.12,1.86.12c1.23,0,2.11-.34,2.66-1.01s.81-1.7.81-3.07c0-.98-.14-1.79-.43-2.41-.29-.62-.67-1.11-1.15-1.46-.48-.35-1.05-.59-1.7-.72-.66-.13-1.35-.2-2.09-.2h-.58c-.41,0-.68.13-.81.4-.13.27-.2.59-.2.98v2.7Z" fill="#1a1714"/>
    <path d="M94.67,174.33c0,1.33-.15,2.52-.45,3.58-.3,1.06-.77,1.95-1.41,2.67-.64.73-1.49,1.28-2.53,1.67-1.04.39-2.31.58-3.81.58s-2.68-.14-3.73-.43c-1.05-.29-1.92-.74-2.61-1.37-.69-.62-1.19-1.43-1.52-2.43-.33-.99-.49-2.2-.49-3.61v-8.6c0-.63-.04-1.18-.11-1.63-.07-.45-.21-.82-.41-1.11-.21-.29-.5-.51-.88-.66-.38-.15-.89-.25-1.52-.29-.12,0-.21-.06-.28-.17-.06-.11-.09-.23-.09-.35s.03-.24.09-.34c.06-.1.15-.15.28-.15.65,0,1.4.04,2.24.11s1.63.11,2.37.11c.43,0,.83,0,1.21-.03.38-.02.75-.05,1.1-.08s.72-.06,1.09-.08c.37-.02.77-.03,1.2-.03.12,0,.21.05.26.15.05.1.07.22.06.34-.01.12-.05.24-.11.35s-.14.17-.25.17c-.64.04-1.15.13-1.54.26-.39.13-.69.34-.89.61-.21.28-.34.64-.4,1.09s-.09,1.02-.09,1.72v8.39c0,.86.11,1.68.34,2.46s.57,1.46,1.03,2.04c.46.58,1.04,1.05,1.74,1.4.7.35,1.52.52,2.46.52,1.99,0,3.5-.55,4.55-1.64s1.57-2.83,1.57-5.21v-6.39c0-.49-.01-.98-.03-1.46s-.05-.94-.09-1.38c-.04-.44-.1-.78-.18-1.03-.1-.35-.21-.61-.32-.78-.11-.17-.25-.3-.41-.38-.16-.08-.37-.13-.61-.14-.25,0-.55-.03-.92-.08-.1,0-.18-.06-.23-.17-.05-.11-.08-.23-.08-.35s.02-.24.06-.34c.04-.1.12-.15.25-.15.49,0,1.01.04,1.57.11s1.12.11,1.69.11c.53,0,1.06-.03,1.6-.11.53-.07,1.13-.11,1.78-.11.12,0,.21.05.28.15.06.1.09.22.09.34s-.03.24-.09.35-.15.17-.28.17c-.37.04-.66.07-.88.08-.21.01-.39.06-.54.14-.14.08-.27.21-.38.38-.11.17-.24.44-.38.78-.1.25-.18.58-.23,1.01-.05.43-.09.89-.11,1.37-.02.48-.03.97-.02,1.46s.02.92.02,1.29v5.1Z" fill="#1a1714"/>
    <path d="M109.88,178.45c0,.68.03,1.2.09,1.58.06.38.2.67.41.88.21.2.52.35.91.45.39.09.91.17,1.57.23.12.02.22.09.29.2.07.11.11.23.11.35s-.04.23-.11.34-.18.15-.32.15c-.82,0-1.6-.04-2.35-.12s-1.49-.12-2.23-.12c-.78,0-1.58.04-2.41.12-.83.08-1.58.12-2.26.12-.12,0-.21-.05-.28-.15s-.09-.21-.09-.34.03-.24.09-.35c.06-.11.15-.18.28-.2.63-.06,1.14-.14,1.52-.23s.68-.24.89-.45c.21-.21.36-.5.43-.88s.11-.91.11-1.58v-13.64c0-.76-.19-1.23-.57-1.43-.38-.19-1.02-.29-1.92-.29-.76,0-1.38.06-1.87.17-.49.11-.9.32-1.21.61-.32.3-.57.7-.77,1.21-.19.51-.37,1.18-.54,2-.02.12-.09.2-.2.25s-.23.06-.34.05c-.11,0-.22-.05-.31-.11s-.14-.13-.14-.22c.08-.76.13-1.53.14-2.32.01-.79-.04-1.57-.14-2.35,0-.23.14-.38.43-.46.29-.08.6-.12.95-.12h16.43c.39,0,.71.04.97.11s.38.22.38.45c-.04.25-.08.55-.11.91s-.05.75-.05,1.18.01.87.05,1.32c.03.45.07.88.11,1.29,0,.08-.05.16-.15.23-.1.07-.21.11-.34.12-.12.01-.24,0-.35-.05s-.18-.12-.2-.25c-.12-.82-.29-1.49-.49-2.01-.21-.52-.48-.93-.81-1.23-.34-.3-.75-.5-1.24-.61-.49-.11-1.07-.17-1.75-.17-.92,0-1.59.1-2,.29-.41.19-.61.67-.61,1.43v13.64Z" fill="#1a1714"/>
    <path d="M129.72,178.45c0,.68.03,1.2.09,1.58.06.38.2.67.41.88.21.2.52.35.91.45.39.09.91.17,1.57.23.12.02.22.09.29.2.07.11.11.23.11.35s-.04.23-.11.34-.18.15-.32.15c-.82,0-1.6-.04-2.35-.12s-1.49-.12-2.23-.12c-.78,0-1.58.04-2.41.12-.83.08-1.58.12-2.26.12-.12,0-.21-.05-.28-.15s-.09-.21-.09-.34.03-.24.09-.35c.06-.11.15-.18.28-.2.63-.06,1.14-.14,1.52-.23s.68-.24.89-.45c.21-.21.36-.5.43-.88s.11-.91.11-1.58v-13.64c0-.76-.19-1.23-.57-1.43-.38-.19-1.02-.29-1.92-.29-.76,0-1.38.06-1.87.17-.49.11-.9.32-1.21.61-.32.3-.57.7-.77,1.21-.19.51-.37,1.18-.54,2-.02.12-.09.2-.2.25s-.23.06-.34.05c-.11,0-.22-.05-.31-.11s-.14-.13-.14-.22c.08-.76.13-1.53.14-2.32.01-.79-.04-1.57-.14-2.35,0-.23.14-.38.43-.46.29-.08.6-.12.95-.12h16.43c.39,0,.71.04.97.11s.38.22.38.45c-.04.25-.08.55-.11.91s-.05.75-.05,1.18.01.87.05,1.32c.03.45.07.88.11,1.29,0,.08-.05.16-.15.23-.1.07-.21.11-.34.12-.12.01-.24,0-.35-.05s-.18-.12-.2-.25c-.12-.82-.29-1.49-.49-2.01-.21-.52-.48-.93-.81-1.23-.34-.3-.75-.5-1.24-.61-.49-.11-1.07-.17-1.75-.17-.92,0-1.59.1-2,.29-.41.19-.61.67-.61,1.43v13.64Z" fill="#1a1714"/>
    <path d="M149.53,182.75c-3.21,0-5.73-.91-7.56-2.73-1.82-1.82-2.73-4.55-2.73-8.17,0-1.56.26-2.99.77-4.3.51-1.31,1.22-2.44,2.13-3.38s2-1.67,3.27-2.2c1.27-.52,2.67-.78,4.21-.78s2.87.25,4.12.75,2.32,1.21,3.22,2.13c.9.92,1.6,2.03,2.1,3.33.5,1.3.75,2.75.75,4.35,0,1.78-.27,3.35-.81,4.71s-1.28,2.51-2.21,3.44c-.93.93-2.02,1.64-3.27,2.12-1.25.48-2.58.72-3.99.72ZM149.65,181.46c1,0,1.89-.27,2.66-.8.77-.53,1.42-1.23,1.95-2.1.53-.87.94-1.87,1.21-3.01.28-1.14.42-2.32.42-3.55s-.11-2.35-.32-3.5c-.21-1.15-.57-2.17-1.06-3.06-.49-.89-1.15-1.61-1.97-2.15s-1.82-.81-3.01-.81c-1.1,0-2.06.28-2.87.83-.81.55-1.47,1.28-1.98,2.17-.51.89-.89,1.9-1.14,3.04-.25,1.14-.37,2.29-.37,3.46,0,1.23.1,2.42.31,3.56.2,1.15.55,2.15,1.04,3.03.49.87,1.15,1.57,1.98,2.1.83.53,1.88.8,3.15.8Z" fill="#1a1714"/>
    <path d="M164.98,165.15c0-.68-.21-1.22-.63-1.64-.42-.42-1.15-.68-2.2-.78-.1,0-.18-.06-.23-.17-.05-.11-.08-.23-.08-.35s.03-.24.08-.34c.05-.1.14-.15.26-.15h1.17c.53,0,1.07.01,1.63.05.55.03,1.05.08,1.51.14.45.06.72.14.8.25l12.38,14.71c.25.27.37.21.37-.15v-8.72c0-.49-.01-.98-.03-1.46s-.05-.94-.08-1.37c-.03-.43-.09-.77-.17-1.01-.1-.31-.21-.55-.31-.72-.1-.17-.24-.31-.41-.4-.17-.09-.39-.15-.64-.19s-.57-.07-.94-.11c-.1,0-.18-.06-.23-.17s-.08-.23-.08-.35.02-.24.06-.34c.04-.1.12-.15.25-.15.49,0,1.02.03,1.58.09s1.13.09,1.7.09c.53,0,1.06-.03,1.58-.09.52-.06,1.11-.09,1.77-.09.12,0,.21.05.28.15.06.1.09.22.09.34s-.03.24-.09.35-.15.17-.28.17c-.37.04-.66.07-.88.09-.22.02-.4.07-.55.15-.15.08-.29.21-.41.38-.12.17-.26.44-.4.78-.1.25-.18.58-.25,1.01-.06.43-.11.89-.14,1.38-.03.49-.05.98-.05,1.47v14.59c0,.06-.06.11-.17.15-.11.04-.25.07-.4.08s-.3,0-.45-.01c-.14-.02-.24-.06-.28-.12l-13.21-15.66c-.16-.18-.29-.27-.37-.26-.08.01-.12.15-.12.42v11.18c0,.74.06,1.31.17,1.72.11.41.29.71.52.91s.53.33.88.4.76.14,1.23.2c.12.02.21.08.28.18.06.1.09.21.08.34-.01.12-.05.24-.11.34-.06.1-.15.15-.28.15-.45,0-.95-.04-1.49-.11-.54-.07-1.18-.11-1.92-.11-.78,0-1.47.04-2.07.11-.6.07-1.11.11-1.52.11-.1,0-.18-.05-.25-.15-.06-.1-.1-.21-.11-.34-.01-.12.01-.23.08-.34s.15-.16.28-.18c.53-.06.98-.13,1.34-.2s.64-.21.86-.4c.21-.19.37-.5.46-.91.09-.41.14-.98.14-1.72v-13.21Z" fill="#1a1714"/>
    <path d="M207.89,168.41c-.04-.14-.12-.21-.25-.2s-.21.09-.25.23l-4.15,13.91c-.06.16-.16.28-.29.35s-.28.1-.43.09c-.15-.01-.29-.05-.41-.12-.12-.07-.21-.16-.25-.26-.92-2.68-1.83-5.33-2.73-7.94-.9-2.61-1.78-5.38-2.64-8.31-.06-.18-.14-.39-.23-.63-.09-.24-.19-.48-.29-.72-.1-.25-.21-.48-.34-.71s-.24-.41-.34-.55c-.25-.35-.54-.56-.89-.64-.35-.08-.8-.14-1.35-.18-.1,0-.19-.06-.25-.17s-.09-.23-.09-.35.03-.24.08-.34c.05-.1.14-.15.26-.15.82,0,1.56.04,2.23.11.67.07,1.37.11,2.1.11.78,0,1.59-.03,2.43-.11s1.69-.11,2.55-.11c.12,0,.21.05.26.15.05.1.07.22.06.34-.01.12-.05.24-.11.35s-.14.17-.25.17c-.31.02-.61.04-.92.05-.31.01-.59.06-.86.14-.27.08-.48.21-.64.4-.16.19-.25.45-.25.8,0,.21.05.55.14,1.04.09.49.27,1.23.52,2.21.26.98.61,2.26,1.06,3.82.45,1.57,1.03,3.53,1.75,5.88.04.12.13.19.28.2.14.01.24-.06.28-.2l4.3-15.36c.02-.1.09-.18.2-.23.11-.05.23-.08.35-.08s.24.03.35.08c.11.05.18.13.2.23l5.01,15.42c.04.16.13.24.28.23.14,0,.23-.07.28-.17l1.69-5.31c.12-.39.27-.92.45-1.6.17-.68.34-1.37.49-2.09.15-.72.28-1.4.38-2.04.1-.65.14-1.15.12-1.52-.04-.76-.22-1.26-.54-1.51-.32-.25-.84-.38-1.55-.4-.14,0-.25-.05-.31-.15-.06-.1-.09-.21-.09-.34,0-.14.04-.27.11-.37.07-.1.17-.15.29-.15.65,0,1.25.04,1.8.11s1.11.11,1.7.11,1.06-.03,1.47-.11c.41-.07.93-.11,1.57-.11.1,0,.19.05.26.15.07.1.11.22.11.34s-.03.24-.09.35-.17.17-.34.17c-.49.04-.9.18-1.23.43-.33.25-.6.57-.83.98-.23.41-.43.88-.6,1.41-.17.53-.35,1.09-.54,1.66l-4.88,15.2c-.04.14-.13.25-.28.31-.14.06-.3.09-.46.09-.14,0-.28-.04-.4-.11-.12-.07-.19-.16-.21-.26l-4.85-14.04Z" fill="#1a1714"/>
    <path d="M233.41,182.75c-3.21,0-5.73-.91-7.56-2.73-1.82-1.82-2.73-4.55-2.73-8.17,0-1.56.26-2.99.77-4.3.51-1.31,1.22-2.44,2.13-3.38s2-1.67,3.27-2.2c1.27-.52,2.67-.78,4.21-.78s2.87.25,4.12.75,2.32,1.21,3.22,2.13c.9.92,1.6,2.03,2.1,3.33.5,1.3.75,2.75.75,4.35,0,1.78-.27,3.35-.81,4.71s-1.28,2.51-2.21,3.44c-.93.93-2.02,1.64-3.27,2.12-1.25.48-2.58.72-3.99.72ZM233.53,181.46c1,0,1.89-.27,2.66-.8.77-.53,1.42-1.23,1.95-2.1.53-.87.94-1.87,1.21-3.01.28-1.14.42-2.32.42-3.55s-.11-2.35-.32-3.5c-.21-1.15-.57-2.17-1.06-3.06-.49-.89-1.15-1.61-1.97-2.15s-1.82-.81-3.01-.81c-1.1,0-2.06.28-2.87.83-.81.55-1.47,1.28-1.98,2.17-.51.89-.89,1.9-1.14,3.04-.25,1.14-.37,2.29-.37,3.46,0,1.23.1,2.42.31,3.56.2,1.15.55,2.15,1.04,3.03.49.87,1.15,1.57,1.98,2.1.83.53,1.88.8,3.15.8Z" fill="#1a1714"/>
    <path d="M249.11,166.96c0-.45-.02-.89-.05-1.32-.03-.43-.1-.83-.2-1.2-.1-.37-.26-.69-.48-.95s-.51-.45-.88-.55c-.23-.06-.46-.11-.71-.15s-.48-.07-.71-.09c-.12,0-.21-.05-.28-.15-.06-.1-.09-.21-.09-.34s.03-.24.09-.34c.06-.1.15-.15.28-.15.7,0,1.32.02,1.87.06s1.2.06,1.93.06c1.23-.02,2.25-.05,3.06-.08.81-.03,1.58-.05,2.32-.05.82,0,1.63.1,2.43.29.8.19,1.51.51,2.13.94s1.13.99,1.51,1.69c.38.7.57,1.54.57,2.52,0,.78-.12,1.45-.35,2.03-.24.57-.56,1.06-.97,1.47s-.9.74-1.46,1c-.56.26-1.17.46-1.83.6-.14.04-.22.11-.22.21,0,.08.07.16.22.25.96.47,1.7.99,2.23,1.57s.92,1.17,1.2,1.78c.28.61.48,1.24.6,1.89s.26,1.28.4,1.89c.1.47.27.81.51,1.03s.48.32.72.32.48-.1.71-.31c.23-.21.4-.51.52-.92.04-.16.12-.27.25-.32.12-.05.24-.06.35-.03s.22.09.31.18.13.19.11.29c-.06.51-.2.95-.43,1.32-.23.37-.5.67-.81.91-.32.24-.68.41-1.08.52-.4.11-.79.17-1.18.17-.66,0-1.25-.14-1.78-.43-.53-.29-.89-.7-1.08-1.23-.12-.35-.24-.73-.35-1.14-.11-.41-.22-.82-.32-1.24s-.21-.83-.31-1.23c-.1-.4-.2-.75-.28-1.06-.37-1.31-.84-2.25-1.43-2.83-.58-.57-1.4-.86-2.44-.86-.35,0-.64.07-.89.21-.25.14-.37.43-.37.86v4.15c0,.7.07,1.26.21,1.67.14.42.36.75.64.98.29.24.64.4,1.06.51.42.1.91.17,1.46.22.12,0,.22.06.29.17.07.11.11.24.11.38,0,.12-.04.23-.11.34s-.18.15-.32.15c-1.02,0-1.92-.04-2.7-.12s-1.54-.12-2.27-.12c-.78,0-1.55.04-2.3.12-.76.08-1.5.12-2.21.12-.12,0-.21-.05-.28-.15s-.1-.21-.11-.34c-.01-.12.02-.24.08-.35.06-.11.16-.18.31-.2.57-.06,1.04-.14,1.41-.25.37-.1.66-.27.86-.49.2-.22.34-.52.41-.89s.11-.86.11-1.47v-11.52ZM252.45,170.62c0,.53.15.84.45.94s.74.14,1.34.14c.8,0,1.47-.08,2.01-.23.54-.15.98-.41,1.3-.77s.56-.82.69-1.38c.13-.56.2-1.25.2-2.07s-.07-1.44-.22-1.98c-.14-.54-.37-.98-.69-1.32-.32-.34-.73-.58-1.24-.72-.51-.14-1.14-.21-1.87-.21-.8,0-1.33.1-1.58.31-.26.21-.38.62-.38,1.26v6.05Z" fill="#1a1714"/>
    <path d="M269.62,166.41c0-.63-.04-1.18-.11-1.63-.07-.45-.21-.82-.41-1.11-.21-.29-.5-.51-.88-.66-.38-.15-.89-.25-1.52-.29-.12,0-.21-.06-.28-.17-.06-.11-.09-.23-.09-.35s.03-.24.09-.34c.06-.1.15-.15.28-.15.65,0,1.4.04,2.24.11s1.63.11,2.37.11c.43,0,.82,0,1.17-.03.35-.02.69-.05,1.01-.08.33-.03.66-.06,1-.08.34-.02.72-.03,1.15-.03.12,0,.21.05.28.15.06.1.09.22.09.34s-.03.24-.09.35c-.06.11-.14.17-.25.17-.63.04-1.13.13-1.49.26-.36.13-.63.34-.81.61-.18.28-.3.64-.34,1.09s-.06,1.02-.06,1.72v5.5c0,.23.08.36.25.41.16.05.39-.07.68-.35,1.37-1.37,2.55-2.68,3.55-3.92.99-1.24,1.76-2.31,2.29-3.21.25-.43.38-.77.41-1.03s-.02-.46-.15-.61c-.13-.15-.34-.26-.61-.32-.28-.06-.6-.11-.97-.15-.14-.02-.25-.08-.32-.19-.07-.1-.11-.21-.11-.34s.03-.24.09-.34c.06-.1.15-.15.28-.15.72,0,1.36.04,1.92.11.56.07,1.15.11,1.77.11.55,0,1.04-.03,1.47-.11.43-.07.96-.11,1.6-.11.1,0,.18.05.23.15.05.1.08.22.08.34s-.03.24-.08.34c-.05.1-.13.16-.23.19-.41.04-.75.1-1.03.17-.28.07-.52.17-.74.29s-.42.29-.61.51c-.19.21-.43.49-.69.81-.37.49-.75,1-1.15,1.54s-.81,1.06-1.23,1.58-.84,1.03-1.26,1.54c-.42.5-.82.95-1.21,1.34-.16.16-.21.31-.14.45.07.13.2.28.38.45.49.45,1,.97,1.54,1.57.53.59,1.06,1.24,1.6,1.93.53.7,1.05,1.42,1.55,2.17.5.75.98,1.49,1.43,2.23.43.72.9,1.26,1.41,1.64.51.38,1.2.61,2.06.69.12.02.22.08.28.18s.09.21.09.34-.03.23-.09.34-.15.15-.28.15c-.45,0-.86-.01-1.23-.03-.37-.02-.72-.05-1.06-.08-.34-.03-.68-.06-1.03-.09-.35-.03-.72-.05-1.11-.05s-.75.01-1.08.05c-.33.03-.65.06-.97.09s-.64.06-.97.08-.7.03-1.1.03c-.12,0-.22-.05-.29-.15-.07-.1-.11-.21-.12-.34-.01-.12.02-.24.09-.35.07-.11.18-.17.32-.17.22-.02.45-.06.69-.11.24-.05.43-.15.57-.29s.23-.33.25-.57c.02-.24-.06-.54-.25-.91-.35-.68-.67-1.27-.95-1.78s-.59-.99-.91-1.43c-.32-.44-.67-.87-1.04-1.29-.38-.42-.82-.86-1.34-1.34-.25-.22-.5-.37-.75-.43s-.47-.09-.63-.09c-.47,0-.78.13-.92.38-.14.26-.21.53-.21.81v3.87c0,.68.03,1.21.08,1.6.05.39.16.69.32.91s.42.36.75.45c.34.08.78.15,1.34.22.12.02.22.08.29.18.07.1.11.21.11.34s-.04.23-.11.34c-.07.1-.18.15-.32.15-.41,0-.78-.01-1.12-.03-.34-.02-.67-.05-.98-.08-.32-.03-.64-.06-.95-.09-.32-.03-.66-.05-1.03-.05-.78,0-1.58.04-2.41.12s-1.58.12-2.26.12c-.12,0-.22-.05-.28-.15s-.09-.21-.09-.34.03-.24.09-.34.15-.16.28-.18c.63-.06,1.14-.14,1.52-.23.38-.09.68-.25.89-.46.22-.21.36-.51.43-.89.07-.38.11-.91.11-1.58v-12.04Z" fill="#1a1714"/>
    <path d="M292.26,165.86c0,.61.13,1.13.38,1.55s.58.77.98,1.06c.4.29.84.54,1.32.75.48.22.95.43,1.4.63.78.37,1.55.76,2.32,1.17.77.41,1.46.89,2.07,1.43s1.11,1.19,1.49,1.93.57,1.65.57,2.72-.22,1.96-.66,2.69c-.44.73-1.01,1.32-1.72,1.78s-1.5.79-2.38,1c-.88.21-1.76.31-2.64.31-.57,0-1.22-.09-1.93-.26-.72-.17-1.37-.43-1.97-.78-.1-.04-.2-.08-.29-.12s-.21-.06-.35-.06-.3.06-.46.18-.31.34-.43.64c-.06.12-.14.2-.25.25-.1.04-.21.06-.32.05-.11-.01-.21-.05-.28-.11s-.11-.13-.11-.21c.06-.45.12-.94.17-1.46.05-.52.08-1.05.08-1.58s-.01-1.06-.05-1.6c-.03-.53-.09-1.09-.17-1.66-.02-.12.02-.23.12-.31.1-.08.21-.13.34-.14.12-.01.24.01.35.06.11.05.18.14.2.26.12.84.35,1.6.68,2.29s.74,1.27,1.23,1.75c.49.48,1.05.86,1.67,1.12.62.27,1.3.4,2.04.4.55,0,1.08-.08,1.58-.23.5-.15.95-.38,1.34-.68s.7-.66.92-1.09c.23-.43.34-.93.34-1.5,0-.74-.16-1.38-.48-1.93-.32-.55-.71-1.03-1.18-1.43-.47-.4-.99-.75-1.57-1.04-.57-.3-1.12-.57-1.63-.81-.68-.31-1.35-.62-2.03-.95-.68-.33-1.28-.72-1.81-1.18-.53-.46-.96-1.01-1.29-1.66s-.49-1.45-.49-2.41.2-1.81.6-2.47c.4-.67.93-1.2,1.58-1.61.65-.41,1.4-.71,2.24-.89s1.71-.28,2.61-.28c.57,0,1.06.04,1.46.11.4.07.84.19,1.34.35.27.08.49.15.66.2.17.05.34.08.51.08.25,0,.42-.1.52-.31.04-.08.12-.14.23-.17.11-.03.22-.04.32-.03.1.01.19.04.28.08.08.04.11.1.09.18-.1.37-.17.74-.2,1.11s-.05.76-.05,1.17c0,.53.03,1.01.09,1.44s.11.94.15,1.54c0,.06-.04.12-.12.17-.08.05-.18.08-.29.09-.11.01-.22,0-.32-.05s-.16-.11-.18-.21c-.21-.9-.43-1.64-.68-2.23-.25-.58-.55-1.04-.92-1.37s-.81-.55-1.34-.68c-.52-.12-1.15-.18-1.89-.18-.51,0-1,.07-1.46.2-.46.13-.86.33-1.21.6-.35.27-.62.6-.83,1-.2.4-.31.86-.31,1.37Z" fill="#1a1714"/>
  </g>
  <g>
    <path d="M228.57,154.35h-3.2c-4.54-.44-8.13-2.19-10.68-4.45-.2-.18-.82-1.37-.89-.53-.11,1.3.23,3.08-.18,4.09-1.66-.11-3.8.24-5.16-.18v-11.39c0-3.76.51-7.97-.71-10.68-1.11-2.48-4.18-3.54-6.94-3.56-3.6-.02-7.4,2.16-8.9,4.45-3.27,5-1.08,14.16-1.78,21.35-1.74-.1-3.9.22-5.34-.18v-11.21c0-3.85.52-7.91-.71-10.68-1.18-2.64-3.93-3.78-7.12-3.74-3.99.05-7.14,2.29-8.72,4.98-3.03,5.16-.83,13.46-1.78,20.82h-5.69v-11.38c0-3.89.55-8.07-.71-10.86-2.22-4.92-10.81-3.95-14.23-.88-5.08,4.55-2.42,14.47-3.38,23.13h-5.16v-11.74c0-4.03.41-8.25-1.06-10.86-2.97-5.27-11.83-3.04-14.77.36-4.15,4.81-1.57,14.59-2.31,22.24h-5.34v-4.09c-2.75,2.02-6.74,4.45-11.92,4.8-5.98.4-10.09-1.49-13.17-3.74-.26-.19-1.24-.99-1.07-.35-.09,1.09.21,2.58-.18,3.38-1.66-.11-3.79.24-5.16-.18-.87-8.61,2.29-20.72-3.2-24.38-5.54-3.7-14.02-.05-16.19,4.8-1.15,2.58-.96,5.96-1.07,9.25-.12,3.43.09,6.95,0,10.5-1.66-.11-3.79.24-5.16-.18v-40.21c1.66.12,3.8-.24,5.16.18v14.95c.74-.1,1.34-.76,1.96-1.25.65-.51,1.32-1.15,2.14-1.6,6.67-3.73,17.19-2.2,20.11,3.91,2.77-2.87,6.2-5.06,11.21-5.7v9.61c2.03,1.22,4.18,2.34,6.41,3.38.12-4.27-.24-9.01.18-12.99,3.84.38,6.84,2.34,9.08,4.09.11.08.67,1.25.89.35.12-1.3-.24-3.08.18-4.09,1.67.11,3.78-.22,5.16.18v3.73c2.48-2.2,6.73-4.73,11.56-4.62,5.07.12,9.24,2.81,10.85,6.4,2.87-5.41,13.23-8.49,19.75-4.45-.22-2.42,3.64-.75,5.34-1.25v4.09c2.41-2.28,6.44-4.8,11.38-4.8,5.34,0,9.27,2.67,11.21,6.4,2.79-5.46,13.48-8.55,19.75-4.45,1.55,1.01,2.41,2.52,3.55,3.92,3.01-4.33,9.65-7.45,16.73-6.77,4.35.43,7.63,2.76,10.14,4.81.12.1.72.97.89.36.12-1.13-.23-2.72.18-3.56h4.98v4.27c1.48-.77,2.86-2.25,4.81-3.2,6.63-3.26,16.55-1.7,19.22,4.27,3.3-3.19,8.32-6.07,14.77-6.05,5.38,0,9.64,2.24,12.45,4.62.07.06.44,1.02.71.36.12-4.98-.24-10.44.18-15.13,1.65.12,3.79-.24,5.15.18-.12,13.34.23,27.17-.18,40.21h-5.16v-4.09c-3.09,2.64-8.78,5.26-15.12,4.8-4.19-.31-7.59-2.01-10.32-3.74-.11-.19-.74-1.13-.71-.35-.1,1.09.2,2.58-.18,3.38-1.66-.11-3.8.24-5.15-.18v-10.5c0-3.68.24-7.57-.54-10.14-1.02-3.41-4.3-5.14-8.19-5.16-5.57-.03-9.75,3.21-11.03,7.47-1.48,4.91-.33,11.54-.71,18.51-1.65-.11-3.79.24-5.16-.18v-4.45c-2.63,2.56-6.53,5.08-11.74,5.52ZM214.69,140.11c1.07,8.44,12.92,12.87,20.28,7.12,2.16-1.69,5.33-5.93,3.92-11.74-.26-1.05-1.91-3.8-2.5-4.45-1.92-2.15-6.16-4.59-11.38-3.92-6.02.78-11.21,5.97-10.32,12.99ZM271.81,135.66c-1.47,4.31.5,8.28,2.49,10.32,6.74,6.91,23.43,4.36,23.48-7.11.04-7.56-7.33-11.75-14.59-11.04-6.12.6-9.81,3.21-11.39,7.83ZM106.68,147.05c-4.13-2.33-8.73-4.19-12.63-6.76-.12-3.62.24-7.7-.18-11.03-6.31,2.65-8.41,11.68-3.02,16.9,7.8,7.56,26.15,3.34,22.78-10.5-.81-3.29-3.94-5.58-6.76-6.76,0-.11-.02-.21-.18-.18v18.32ZM97.25,138.69c2.26.94,4.33,2.08,6.41,3.21v-1.96c-2.28-.87-4.13-2.15-6.41-3.03v1.78Z" fill-rule="evenodd"/>
    <path d="M225.72,132.82c4.43-.7,10.01,2.9,7.83,8.01-2.43,5.68-12.69,4.93-13.52-1.25-.5-3.66,2.02-6.18,5.69-6.76Z" fill-rule="evenodd"/>
  </g>
</svg>