<svg xmlns="http://www.w3.org/2000/svg" viewBox="0 0 64 64" role="img" aria-label="Hammond Button Works"><defs><clipPath id="b"><circle cx="32" cy="32" r="24.5"/></clipPath></defs><circle cx="32" cy="32" r="32" fill="#1a1714"/><g clip-path="url(#b)"><g transform="translate(32 32) scale(1.2564) translate(-100.8 -139.3)"><path d="M228.57,154.35h-3.2c-4.54-.44-8.13-2.19-10.68-4.45-.2-.18-.82-1.37-.89-.53-.11,1.3.23,3.08-.18,4.09-1.66-.11-3.8.24-5.16-.18v-11.39c0-3.76.51-7.97-.71-10.68-1.11-2.48-4.18-3.54-6.94-3.56-3.6-.02-7.4,2.16-8.9,4.45-3.27,5-1.08,14.16-1.78,21.35-1.74-.1-3.9.22-5.34-.18v-11.21c0-3.85.52-7.91-.71-10.68-1.18-2.64-3.93-3.78-7.12-3.74-3.99.05-7.14,2.29-8.72,4.98-3.03,5.16-.83,13.46-1.78,20.82h-5.69v-11.38c0-3.89.55-8.07-.71-10.86-2.22-4.92-10.81-3.95-14.23-.88-5.08,4.55-2.42,14.47-3.38,23.13h-5.16v-11.74c0-4.03.41-8.25-1.06-10.86-2.97-5.27-11.83-3.04-14.77.36-4.15,4.81-1.57,14.59-2.31,22.24h-5.34v-4.09c-2.75,2.02-6.74,4.45-11.92,4.8-5.98.4-10.09-1.49-13.17-3.74-.26-.19-1.24-.99-1.07-.35-.09,1.09.21,2.58-.18,3.38-1.66-.11-3.79.24-5.16-.18-.87-8.61,2.29-20.72-3.2-24.38-5.54-3.7-14.02-.05-16.19,4.8-1.15,2.58-.96,5.96-1.07,9.25-.12,3.43.09,6.95,0,10.5-1.66-.11-3.79.24-5.16-.18v-40.21c1.66.12,3.8-.24,5.16.18v14.95c.74-.1,1.34-.76,1.96-1.25.65-.51,1.32-1.15,2.14-1.6,6.67-3.73,17.19-2.2,20.11,3.91,2.77-2.87,6.2-5.06,11.21-5.7v9.61c2.03,1.22,4.18,2.34,6.41,3.38.12-4.27-.24-9.01.18-12.99,3.84.38,6.84,2.34,9.08,4.09.11.08.67,1.25.89.35.12-1.3-.24-3.08.18-4.09,1.67.11,3.78-.22,5.16.18v3.73c2.48-2.2,6.73-4.73,11.56-4.62,5.07.12,9.24,2.81,10.85,6.4,2.87-5.41,13.23-8.49,19.75-4.45-.22-2.42,3.64-.75,5.34-1.25v4.09c2.41-2.28,6.44-4.8,11.38-4.8,5.34,0,9.27,2.67,11.21,6.4,2.79-5.46,13.48-8.55,19.75-4.45,1.55,1.01,2.41,2.52,3.55,3.92,3.01-4.33,9.65-7.45,16.73-6.77,4.35.43,7.63,2.76,10.14,4.81.12.1.72.97.89.36.12-1.13-.23-2.72.18-3.56h4.98v4.27c1.48-.77,2.86-2.25,4.81-3.2,6.63-3.26,16.55-1.7,19.22,4.27,3.3-3.19,8.32-6.07,14.77-6.05,5.38,0,9.64,2.24,12.45,4.62.07.06.44,1.02.71.36.12-4.98-.24-10.44.18-15.13,1.65.12,3.79-.24,5.15.18-.12,13.34.23,27.17-.18,40.21h-5.16v-4.09c-3.09,2.64-8.78,5.26-15.12,4.8-4.19-.31-7.59-2.01-10.32-3.74-.11-.19-.74-1.13-.71-.35-.1,1.09.2,2.58-.18,3.38-1.66-.11-3.8.24-5.15-.18v-10.5c0-3.68.24-7.57-.54-10.14-1.02-3.41-4.3-5.14-8.19-5.16-5.57-.03-9.75,3.21-11.03,7.47-1.48,4.91-.33,11.54-.71,18.51-1.65-.11-3.79.24-5.16-.18v-4.45c-2.63,2.56-6.53,5.08-11.74,5.52ZM214.69,140.11c1.07,8.44,12.92,12.87,20.28,7.12,2.16-1.69,5.33-5.93,3.92-11.74-.26-1.05-1.91-3.8-2.5-4.45-1.92-2.15-6.16-4.59-11.38-3.92-6.02.78-11.21,5.97-10.32,12.99ZM271.81,135.66c-1.47,4.31.5,8.28,2.49,10.32,6.74,6.91,23.43,4.36,23.48-7.11.04-7.56-7.33-11.75-14.59-11.04-6.12.6-9.81,3.21-11.39,7.83ZM106.68,147.05c-4.13-2.33-8.73-4.19-12.63-6.76-.12-3.62.24-7.7-.18-11.03-6.31,2.65-8.41,11.68-3.02,16.9,7.8,7.56,26.15,3.34,22.78-10.5-.81-3.29-3.94-5.58-6.76-6.76,0-.11-.02-.21-.18-.18v18.32ZM97.25,138.69c2.26.94,4.33,2.08,6.41,3.21v-1.96c-2.28-.87-4.13-2.15-6.41-3.03v1.78Z" fill="#f4f1ea"/><path d="M225.72,132.82c4.43-.7,10.01,2.9,7.83,8.01-2.43,5.68-12.69,4.93-13.52-1.25-.5-3.66,2.02-6.18,5.69-6.76Z" fill="#f4f1ea"/></g></g></svg>